<svg xmlns="http://www.w3.org/2000/svg" version="1.1" xmlns:xlink="http://www.w3.org/1999/xlink" xmlns:svgjs="http://svgjs.dev/svgjs" width="810" height="810" preserveAspectRatio="none" viewBox="0 0 810 810"><g mask="url(&quot;#SvgjsMask1000&quot;)" fill="none"><rect width="810" height="810" x="0" y="0" fill="rgba(244, 243, 243, 1)"></rect><path d="M-25.59 550.06L-25.59 550.06" stroke="#132e65" stroke-width="1.5"></path><path d="M-25.59 550.06L27.56 547.03" stroke="#132e65" stroke-width="1.5"></path><path d="M-25.59 550.06L-57.59 670.58" stroke="#132e65" stroke-width="1.5"></path><path d="M-57.59 670.58L-57.59 670.58" stroke="#132e65" stroke-width="1.5"></path><path d="M-57.59 670.58L-56.27 759.06" stroke="#132e65" stroke-width="1.5"></path><path d="M-57.59 670.58L43.95 737.34" stroke="#132e65" stroke-width="1.5"></path><path d="M-57.59 670.58L69.21 676.41" stroke="#132e65" stroke-width="1.5"></path><path d="M-57.59 670.58L27.56 547.03" stroke="#132e65" stroke-width="1.5"></path><path d="M-56.27 759.06L-56.27 759.06" stroke="#132e65" stroke-width="1.5"></path><path d="M-56.27 759.06L43.95 737.34" stroke="#132e65" stroke-width="1.5"></path><path d="M-56.27 759.06L-44.58 861.25" stroke="#132e65" stroke-width="1.5"></path><path d="M-56.27 759.06L69.21 676.41" stroke="#132e65" stroke-width="1.5"></path><path d="M-56.27 759.06L72.17 853.19" stroke="#132e65" stroke-width="1.5"></path><path d="M-44.58 861.25L-44.58 861.25" stroke="#132e65" stroke-width="1.5"></path><path d="M-44.58 861.25L72.17 853.19" stroke="#132e65" stroke-width="1.5"></path><path d="M-44.58 861.25L43.95 737.34" stroke="#132e65" stroke-width="1.5"></path><path d="M-44.58 861.25L128.36 866.29" stroke="#132e65" stroke-width="1.5"></path><path d="M27.56 547.03L27.56 547.03" stroke="#132e65" stroke-width="1.5"></path><path d="M27.56 547.03L147.85 571.77" stroke="#132e65" stroke-width="1.5"></path><path d="M27.56 547.03L69.21 676.41" stroke="#132e65" stroke-width="1.5"></path><path d="M69.21 676.41L69.21 676.41" stroke="#132e65" stroke-width="1.5"></path><path d="M69.21 676.41L43.95 737.34" stroke="#132e65" stroke-width="1.5"></path><path d="M69.21 676.41L148.02 654.82" stroke="#132e65" stroke-width="1.5"></path><path d="M43.95 737.34L43.95 737.34" stroke="#132e65" stroke-width="1.5"></path><path d="M43.95 737.34L155.66 777.77" stroke="#132e65" stroke-width="1.5"></path><path d="M43.95 737.34L72.17 853.19" stroke="#132e65" stroke-width="1.5"></path><path d="M43.95 737.34L148.02 654.82" stroke="#132e65" stroke-width="1.5"></path><path d="M72.17 853.19L72.17 853.19" stroke="#132e65" stroke-width="1.5"></path><path d="M72.17 853.19L128.36 866.29" stroke="#132e65" stroke-width="1.5"></path><path d="M72.17 853.19L155.66 777.77" stroke="#132e65" stroke-width="1.5"></path><path d="M72.17 853.19L69.21 676.41" stroke="#132e65" stroke-width="1.5"></path><path d="M147.85 571.77L147.85 571.77" stroke="#132e65" stroke-width="1.5"></path><path d="M147.85 571.77L148.02 654.82" stroke="#132e65" stroke-width="1.5"></path><path d="M147.85 571.77L228.84 640.17" stroke="#132e65" stroke-width="1.5"></path><path d="M147.85 571.77L69.21 676.41" stroke="#132e65" stroke-width="1.5"></path><path d="M148.02 654.82L148.02 654.82" stroke="#132e65" stroke-width="1.5"></path><path d="M148.02 654.82L228.84 640.17" stroke="#132e65" stroke-width="1.5"></path><path d="M155.66 777.77L155.66 777.77" stroke="#132e65" stroke-width="1.5"></path><path d="M155.66 777.77L128.36 866.29" stroke="#132e65" stroke-width="1.5"></path><path d="M155.66 777.77L261.74 742.16" stroke="#132e65" stroke-width="1.5"></path><path d="M155.66 777.77L148.02 654.82" stroke="#132e65" stroke-width="1.5"></path><path d="M128.36 866.29L128.36 866.29" stroke="#132e65" stroke-width="1.5"></path><path d="M128.36 866.29L276.63 871.14" stroke="#132e65" stroke-width="1.5"></path><path d="M128.36 866.29L43.95 737.34" stroke="#132e65" stroke-width="1.5"></path><path d="M276.88 435.19L276.88 435.19" stroke="#132e65" stroke-width="1.5"></path><path d="M276.88 435.19L348.61 346.61" stroke="#132e65" stroke-width="1.5"></path><path d="M276.88 435.19L352.33 574.66" stroke="#132e65" stroke-width="1.5"></path><path d="M276.88 435.19L147.85 571.77" stroke="#132e65" stroke-width="1.5"></path><path d="M276.88 435.19L465.39 474.05" stroke="#132e65" stroke-width="1.5"></path><path d="M276.88 435.19L459.55 370.68" stroke="#132e65" stroke-width="1.5"></path><path d="M276.88 435.19L228.84 640.17" stroke="#132e65" stroke-width="1.5"></path><path d="M228.84 640.17L228.84 640.17" stroke="#132e65" stroke-width="1.5"></path><path d="M228.84 640.17L329.8 671.47" stroke="#132e65" stroke-width="1.5"></path><path d="M228.84 640.17L261.74 742.16" stroke="#132e65" stroke-width="1.5"></path><path d="M228.84 640.17L352.33 574.66" stroke="#132e65" stroke-width="1.5"></path><path d="M228.84 640.17L155.66 777.77" stroke="#132e65" stroke-width="1.5"></path><path d="M261.74 742.16L261.74 742.16" stroke="#132e65" stroke-width="1.5"></path><path d="M261.74 742.16L329.8 671.47" stroke="#132e65" stroke-width="1.5"></path><path d="M261.74 742.16L364.9 745.65" stroke="#132e65" stroke-width="1.5"></path><path d="M276.63 871.14L276.63 871.14" stroke="#132e65" stroke-width="1.5"></path><path d="M276.63 871.14L353.6 877.51" stroke="#132e65" stroke-width="1.5"></path><path d="M276.63 871.14L261.74 742.16" stroke="#132e65" stroke-width="1.5"></path><path d="M348.61 346.61L348.61 346.61" stroke="#132e65" stroke-width="1.5"></path><path d="M348.61 346.61L459.55 370.68" stroke="#132e65" stroke-width="1.5"></path><path d="M348.61 346.61L451.22 260.57" stroke="#132e65" stroke-width="1.5"></path><path d="M348.61 346.61L465.39 474.05" stroke="#132e65" stroke-width="1.5"></path><path d="M348.61 346.61L533.88 430.54" stroke="#132e65" stroke-width="1.5"></path><path d="M352.33 574.66L352.33 574.66" stroke="#132e65" stroke-width="1.5"></path><path d="M352.33 574.66L329.8 671.47" stroke="#132e65" stroke-width="1.5"></path><path d="M352.33 574.66L462.29 568.96" stroke="#132e65" stroke-width="1.5"></path><path d="M352.33 574.66L449.77 682.07" stroke="#132e65" stroke-width="1.5"></path><path d="M329.8 671.47L329.8 671.47" stroke="#132e65" stroke-width="1.5"></path><path d="M329.8 671.47L364.9 745.65" stroke="#132e65" stroke-width="1.5"></path><path d="M364.9 745.65L364.9 745.65" stroke="#132e65" stroke-width="1.5"></path><path d="M364.9 745.65L457.67 783.03" stroke="#132e65" stroke-width="1.5"></path><path d="M364.9 745.65L449.77 682.07" stroke="#132e65" stroke-width="1.5"></path><path d="M364.9 745.65L353.6 877.51" stroke="#132e65" stroke-width="1.5"></path><path d="M353.6 877.51L353.6 877.51" stroke="#132e65" stroke-width="1.5"></path><path d="M353.6 877.51L458.67 845.68" stroke="#132e65" stroke-width="1.5"></path><path d="M353.6 877.51L457.67 783.03" stroke="#132e65" stroke-width="1.5"></path><path d="M353.6 877.51L261.74 742.16" stroke="#132e65" stroke-width="1.5"></path><path d="M451.22 260.57L451.22 260.57" stroke="#132e65" stroke-width="1.5"></path><path d="M451.22 260.57L459.55 370.68" stroke="#132e65" stroke-width="1.5"></path><path d="M451.22 260.57L564.24 262.39" stroke="#132e65" stroke-width="1.5"></path><path d="M459.55 370.68L459.55 370.68" stroke="#132e65" stroke-width="1.5"></path><path d="M459.55 370.68L533.88 430.54" stroke="#132e65" stroke-width="1.5"></path><path d="M459.55 370.68L465.39 474.05" stroke="#132e65" stroke-width="1.5"></path><path d="M459.55 370.68L574.3 331.32" stroke="#132e65" stroke-width="1.5"></path><path d="M459.55 370.68L564.24 262.39" stroke="#132e65" stroke-width="1.5"></path><path d="M465.39 474.05L465.39 474.05" stroke="#132e65" stroke-width="1.5"></path><path d="M465.39 474.05L533.88 430.54" stroke="#132e65" stroke-width="1.5"></path><path d="M465.39 474.05L462.29 568.96" stroke="#132e65" stroke-width="1.5"></path><path d="M465.39 474.05L564.44 552.85" stroke="#132e65" stroke-width="1.5"></path><path d="M465.39 474.05L352.33 574.66" stroke="#132e65" stroke-width="1.5"></path><path d="M462.29 568.96L462.29 568.96" stroke="#132e65" stroke-width="1.5"></path><path d="M462.29 568.96L564.44 552.85" stroke="#132e65" stroke-width="1.5"></path><path d="M449.77 682.07L449.77 682.07" stroke="#132e65" stroke-width="1.5"></path><path d="M449.77 682.07L538.34 672.99" stroke="#132e65" stroke-width="1.5"></path><path d="M449.77 682.07L457.67 783.03" stroke="#132e65" stroke-width="1.5"></path><path d="M449.77 682.07L462.29 568.96" stroke="#132e65" stroke-width="1.5"></path><path d="M457.67 783.03L457.67 783.03" stroke="#132e65" stroke-width="1.5"></path><path d="M457.67 783.03L458.67 845.68" stroke="#132e65" stroke-width="1.5"></path><path d="M457.67 783.03L534.95 855.12" stroke="#132e65" stroke-width="1.5"></path><path d="M457.67 783.03L563.45 755.95" stroke="#132e65" stroke-width="1.5"></path><path d="M458.67 845.68L458.67 845.68" stroke="#132e65" stroke-width="1.5"></path><path d="M458.67 845.68L534.95 855.12" stroke="#132e65" stroke-width="1.5"></path><path d="M458.67 845.68L364.9 745.65" stroke="#132e65" stroke-width="1.5"></path><path d="M576 -64.95L576 -64.95" stroke="#132e65" stroke-width="1.5"></path><path d="M576 -64.95L671.17 -45.81" stroke="#132e65" stroke-width="1.5"></path><path d="M576 -64.95L534.7 34.95" stroke="#132e65" stroke-width="1.5"></path><path d="M576 -64.95L656.45 54.62" stroke="#132e65" stroke-width="1.5"></path><path d="M576 -64.95L766.15 -73.3" stroke="#132e65" stroke-width="1.5"></path><path d="M576 -64.95L756.01 48.5" stroke="#132e65" stroke-width="1.5"></path><path d="M534.7 34.95L534.7 34.95" stroke="#132e65" stroke-width="1.5"></path><path d="M534.7 34.95L656.45 54.62" stroke="#132e65" stroke-width="1.5"></path><path d="M556.08 170.12L556.08 170.12" stroke="#132e65" stroke-width="1.5"></path><path d="M556.08 170.12L564.24 262.39" stroke="#132e65" stroke-width="1.5"></path><path d="M556.08 170.12L656.03 169.14" stroke="#132e65" stroke-width="1.5"></path><path d="M556.08 170.12L534.7 34.95" stroke="#132e65" stroke-width="1.5"></path><path d="M556.08 170.12L451.22 260.57" stroke="#132e65" stroke-width="1.5"></path><path d="M556.08 170.12L676.51 250.27" stroke="#132e65" stroke-width="1.5"></path><path d="M564.24 262.39L564.24 262.39" stroke="#132e65" stroke-width="1.5"></path><path d="M564.24 262.39L574.3 331.32" stroke="#132e65" stroke-width="1.5"></path><path d="M574.3 331.32L574.3 331.32" stroke="#132e65" stroke-width="1.5"></path><path d="M574.3 331.32L640.96 335.62" stroke="#132e65" stroke-width="1.5"></path><path d="M533.88 430.54L533.88 430.54" stroke="#132e65" stroke-width="1.5"></path><path d="M533.88 430.54L574.3 331.32" stroke="#132e65" stroke-width="1.5"></path><path d="M533.88 430.54L564.44 552.85" stroke="#132e65" stroke-width="1.5"></path><path d="M533.88 430.54L640.96 335.62" stroke="#132e65" stroke-width="1.5"></path><path d="M533.88 430.54L678.02 477.68" stroke="#132e65" stroke-width="1.5"></path><path d="M564.44 552.85L564.44 552.85" stroke="#132e65" stroke-width="1.5"></path><path d="M564.44 552.85L672.24 561.94" stroke="#132e65" stroke-width="1.5"></path><path d="M564.44 552.85L538.34 672.99" stroke="#132e65" stroke-width="1.5"></path><path d="M564.44 552.85L666.45 641.8" stroke="#132e65" stroke-width="1.5"></path><path d="M538.34 672.99L538.34 672.99" stroke="#132e65" stroke-width="1.5"></path><path d="M538.34 672.99L563.45 755.95" stroke="#132e65" stroke-width="1.5"></path><path d="M563.45 755.95L563.45 755.95" stroke="#132e65" stroke-width="1.5"></path><path d="M563.45 755.95L659.75 738.65" stroke="#132e65" stroke-width="1.5"></path><path d="M534.95 855.12L534.95 855.12" stroke="#132e65" stroke-width="1.5"></path><path d="M671.17 -45.81L671.17 -45.81" stroke="#132e65" stroke-width="1.5"></path><path d="M671.17 -45.81L766.15 -73.3" stroke="#132e65" stroke-width="1.5"></path><path d="M656.45 54.62L656.45 54.62" stroke="#132e65" stroke-width="1.5"></path><path d="M656.45 54.62L756.01 48.5" stroke="#132e65" stroke-width="1.5"></path><path d="M656.45 54.62L671.17 -45.81" stroke="#132e65" stroke-width="1.5"></path><path d="M656.45 54.62L656.03 169.14" stroke="#132e65" stroke-width="1.5"></path><path d="M656.03 169.14L656.03 169.14" stroke="#132e65" stroke-width="1.5"></path><path d="M656.03 169.14L676.51 250.27" stroke="#132e65" stroke-width="1.5"></path><path d="M656.03 169.14L564.24 262.39" stroke="#132e65" stroke-width="1.5"></path><path d="M656.03 169.14L760.87 253.88" stroke="#132e65" stroke-width="1.5"></path><path d="M676.51 250.27L676.51 250.27" stroke="#132e65" stroke-width="1.5"></path><path d="M676.51 250.27L760.87 253.88" stroke="#132e65" stroke-width="1.5"></path><path d="M640.96 335.62L640.96 335.62" stroke="#132e65" stroke-width="1.5"></path><path d="M640.96 335.62L676.51 250.27" stroke="#132e65" stroke-width="1.5"></path><path d="M640.96 335.62L737.22 356.13" stroke="#132e65" stroke-width="1.5"></path><path d="M640.96 335.62L564.24 262.39" stroke="#132e65" stroke-width="1.5"></path><path d="M678.02 477.68L678.02 477.68" stroke="#132e65" stroke-width="1.5"></path><path d="M678.02 477.68L754.12 454.41" stroke="#132e65" stroke-width="1.5"></path><path d="M678.02 477.68L735.44 538.04" stroke="#132e65" stroke-width="1.5"></path><path d="M678.02 477.68L672.24 561.94" stroke="#132e65" stroke-width="1.5"></path><path d="M678.02 477.68L737.22 356.13" stroke="#132e65" stroke-width="1.5"></path><path d="M678.02 477.68L564.44 552.85" stroke="#132e65" stroke-width="1.5"></path><path d="M678.02 477.68L640.96 335.62" stroke="#132e65" stroke-width="1.5"></path><path d="M672.24 561.94L672.24 561.94" stroke="#132e65" stroke-width="1.5"></path><path d="M672.24 561.94L735.44 538.04" stroke="#132e65" stroke-width="1.5"></path><path d="M672.24 561.94L666.45 641.8" stroke="#132e65" stroke-width="1.5"></path><path d="M666.45 641.8L666.45 641.8" stroke="#132e65" stroke-width="1.5"></path><path d="M666.45 641.8L659.75 738.65" stroke="#132e65" stroke-width="1.5"></path><path d="M659.75 738.65L659.75 738.65" stroke="#132e65" stroke-width="1.5"></path><path d="M659.75 738.65L748.37 748.47" stroke="#132e65" stroke-width="1.5"></path><path d="M766.15 -73.3L766.15 -73.3" stroke="#132e65" stroke-width="1.5"></path><path d="M766.15 -73.3L864.8 -73.28" stroke="#132e65" stroke-width="1.5"></path><path d="M766.15 -73.3L756.01 48.5" stroke="#132e65" stroke-width="1.5"></path><path d="M766.15 -73.3L858.31 66.72" stroke="#132e65" stroke-width="1.5"></path><path d="M756.01 48.5L756.01 48.5" stroke="#132e65" stroke-width="1.5"></path><path d="M756.01 48.5L858.31 66.72" stroke="#132e65" stroke-width="1.5"></path><path d="M760.87 253.88L760.87 253.88" stroke="#132e65" stroke-width="1.5"></path><path d="M760.87 253.88L850.74 238.8" stroke="#132e65" stroke-width="1.5"></path><path d="M760.87 253.88L737.22 356.13" stroke="#132e65" stroke-width="1.5"></path><path d="M760.87 253.88L640.96 335.62" stroke="#132e65" stroke-width="1.5"></path><path d="M737.22 356.13L737.22 356.13" stroke="#132e65" stroke-width="1.5"></path><path d="M737.22 356.13L754.12 454.41" stroke="#132e65" stroke-width="1.5"></path><path d="M754.12 454.41L754.12 454.41" stroke="#132e65" stroke-width="1.5"></path><path d="M754.12 454.41L735.44 538.04" stroke="#132e65" stroke-width="1.5"></path><path d="M754.12 454.41L672.24 561.94" stroke="#132e65" stroke-width="1.5"></path><path d="M754.12 454.41L861.34 361.75" stroke="#132e65" stroke-width="1.5"></path><path d="M754.12 454.41L861.93 554.63" stroke="#132e65" stroke-width="1.5"></path><path d="M735.44 538.04L735.44 538.04" stroke="#132e65" stroke-width="1.5"></path><path d="M735.44 538.04L666.45 641.8" stroke="#132e65" stroke-width="1.5"></path><path d="M735.44 538.04L861.93 554.63" stroke="#132e65" stroke-width="1.5"></path><path d="M781.38 658L781.38 658" stroke="#132e65" stroke-width="1.5"></path><path d="M781.38 658L840.99 677.83" stroke="#132e65" stroke-width="1.5"></path><path d="M781.38 658L748.37 748.47" stroke="#132e65" stroke-width="1.5"></path><path d="M781.38 658L666.45 641.8" stroke="#132e65" stroke-width="1.5"></path><path d="M781.38 658L846.78 767.61" stroke="#132e65" stroke-width="1.5"></path><path d="M781.38 658L735.44 538.04" stroke="#132e65" stroke-width="1.5"></path><path d="M748.37 748.47L748.37 748.47" stroke="#132e65" stroke-width="1.5"></path><path d="M748.37 748.47L846.78 767.61" stroke="#132e65" stroke-width="1.5"></path><path d="M864.8 -73.28L864.8 -73.28" stroke="#132e65" stroke-width="1.5"></path><path d="M864.8 -73.28L858.31 66.72" stroke="#132e65" stroke-width="1.5"></path><path d="M864.8 -73.28L756.01 48.5" stroke="#132e65" stroke-width="1.5"></path><path d="M864.8 -73.28L671.17 -45.81" stroke="#132e65" stroke-width="1.5"></path><path d="M858.31 66.72L858.31 66.72" stroke="#132e65" stroke-width="1.5"></path><path d="M858.31 66.72L850.74 238.8" stroke="#132e65" stroke-width="1.5"></path><path d="M858.31 66.72L656.45 54.62" stroke="#132e65" stroke-width="1.5"></path><path d="M850.74 238.8L850.74 238.8" stroke="#132e65" stroke-width="1.5"></path><path d="M850.74 238.8L861.34 361.75" stroke="#132e65" stroke-width="1.5"></path><path d="M861.34 361.75L861.34 361.75" stroke="#132e65" stroke-width="1.5"></path><path d="M861.34 361.75L737.22 356.13" stroke="#132e65" stroke-width="1.5"></path><path d="M861.93 554.63L861.93 554.63" stroke="#132e65" stroke-width="1.5"></path><path d="M861.93 554.63L840.99 677.83" stroke="#132e65" stroke-width="1.5"></path><path d="M861.93 554.63L781.38 658" stroke="#132e65" stroke-width="1.5"></path><path d="M840.99 677.83L840.99 677.83" stroke="#132e65" stroke-width="1.5"></path><path d="M840.99 677.83L846.78 767.61" stroke="#132e65" stroke-width="1.5"></path><path d="M840.99 677.83L748.37 748.47" stroke="#132e65" stroke-width="1.5"></path><path d="M846.78 767.61L846.78 767.61" stroke="#132e65" stroke-width="1.5"></path><path d="M846.78 767.61L854.66 849.02" stroke="#132e65" stroke-width="1.5"></path><path d="M854.66 849.02L854.66 849.02" stroke="#132e65" stroke-width="1.5"></path><path d="M854.66 849.02L748.37 748.47" stroke="#132e65" stroke-width="1.5"></path><path d="M854.66 849.02L840.99 677.83" stroke="#132e65" stroke-width="1.5"></path><path d="M854.66 849.02L781.38 658" stroke="#132e65" stroke-width="1.5"></path><path d="M854.66 849.02L659.75 738.65" stroke="#132e65" stroke-width="1.5"></path><path d="M854.66 849.02L666.45 641.8" stroke="#132e65" stroke-width="1.5"></path><circle r="5" cx="-25.59" cy="550.06" fill="#132e65"></circle><circle r="5" cx="-57.59" cy="670.58" fill="#132e65"></circle><circle r="5" cx="-56.27" cy="759.06" fill="#132e65"></circle><circle r="5" cx="-44.58" cy="861.25" fill="#132e65"></circle><circle r="5" cx="27.56" cy="547.03" fill="#132e65"></circle><circle r="5" cx="69.21" cy="676.41" fill="#132e65"></circle><circle r="5" cx="43.95" cy="737.34" fill="#132e65"></circle><circle r="5" cx="72.17" cy="853.19" fill="#132e65"></circle><circle r="5" cx="147.85" cy="571.77" fill="#132e65"></circle><circle r="5" cx="148.02" cy="654.82" fill="#132e65"></circle><circle r="5" cx="155.66" cy="777.77" fill="#132e65"></circle><circle r="5" cx="128.36" cy="866.29" fill="#132e65"></circle><circle r="5" cx="276.88" cy="435.19" fill="#132e65"></circle><circle r="5" cx="228.84" cy="640.17" fill="#132e65"></circle><circle r="5" cx="261.74" cy="742.16" fill="#132e65"></circle><circle r="5" cx="276.63" cy="871.14" fill="#132e65"></circle><circle r="5" cx="348.61" cy="346.61" fill="#132e65"></circle><circle r="5" cx="352.33" cy="574.66" fill="#132e65"></circle><circle r="5" cx="329.8" cy="671.47" fill="#132e65"></circle><circle r="5" cx="364.9" cy="745.65" fill="#132e65"></circle><circle r="5" cx="353.6" cy="877.51" fill="#132e65"></circle><circle r="5" cx="451.22" cy="260.57" fill="#132e65"></circle><circle r="5" cx="459.55" cy="370.68" fill="#132e65"></circle><circle r="5" cx="465.39" cy="474.05" fill="#132e65"></circle><circle r="5" cx="462.29" cy="568.96" fill="#132e65"></circle><circle r="5" cx="449.77" cy="682.07" fill="#132e65"></circle><circle r="5" cx="457.67" cy="783.03" fill="#132e65"></circle><circle r="5" cx="458.67" cy="845.68" fill="#132e65"></circle><circle r="5" cx="576" cy="-64.95" fill="#132e65"></circle><circle r="5" cx="534.7" cy="34.95" fill="#132e65"></circle><circle r="5" cx="556.08" cy="170.12" fill="#132e65"></circle><circle r="5" cx="564.24" cy="262.39" fill="#132e65"></circle><circle r="5" cx="574.3" cy="331.32" fill="#132e65"></circle><circle r="5" cx="533.88" cy="430.54" fill="#132e65"></circle><circle r="5" cx="564.44" cy="552.85" fill="#132e65"></circle><circle r="5" cx="538.34" cy="672.99" fill="#132e65"></circle><circle r="5" cx="563.45" cy="755.95" fill="#132e65"></circle><circle r="5" cx="534.95" cy="855.12" fill="#132e65"></circle><circle r="5" cx="671.17" cy="-45.81" fill="#132e65"></circle><circle r="5" cx="656.45" cy="54.62" fill="#132e65"></circle><circle r="5" cx="656.03" cy="169.14" fill="#132e65"></circle><circle r="5" cx="676.51" cy="250.27" fill="#132e65"></circle><circle r="5" cx="640.96" cy="335.62" fill="#132e65"></circle><circle r="5" cx="678.02" cy="477.68" fill="#132e65"></circle><circle r="5" cx="672.24" cy="561.94" fill="#132e65"></circle><circle r="5" cx="666.45" cy="641.8" fill="#132e65"></circle><circle r="5" cx="659.75" cy="738.65" fill="#132e65"></circle><circle r="5" cx="766.15" cy="-73.3" fill="#132e65"></circle><circle r="5" cx="756.01" cy="48.5" fill="#132e65"></circle><circle r="5" cx="760.87" cy="253.88" fill="#132e65"></circle><circle r="5" cx="737.22" cy="356.13" fill="#132e65"></circle><circle r="5" cx="754.12" cy="454.41" fill="#132e65"></circle><circle r="5" cx="735.44" cy="538.04" fill="#132e65"></circle><circle r="5" cx="781.38" cy="658" fill="#132e65"></circle><circle r="5" cx="748.37" cy="748.47" fill="#132e65"></circle><circle r="5" cx="864.8" cy="-73.28" fill="#132e65"></circle><circle r="5" cx="858.31" cy="66.72" fill="#132e65"></circle><circle r="5" cx="850.74" cy="238.8" fill="#132e65"></circle><circle r="5" cx="861.34" cy="361.75" fill="#132e65"></circle><circle r="5" cx="861.93" cy="554.63" fill="#132e65"></circle><circle r="5" cx="840.99" cy="677.83" fill="#132e65"></circle><circle r="5" cx="846.78" cy="767.61" fill="#132e65"></circle><circle r="5" cx="854.66" cy="849.02" fill="#132e65"></circle><path d="M68.24 672.54L68.24 672.54" stroke="hsl(228.5, 77.2%, 51.5%)" stroke-width="1.5"></path><path d="M68.24 672.54L141.11 657.51" stroke="hsl(228.5, 77.2%, 51.5%)" stroke-width="1.5"></path><path d="M68.24 672.54L46.45 745.17" stroke="hsl(228.5, 77.2%, 51.5%)" stroke-width="1.5"></path><path d="M68.24 672.54L-60.5 662.53" stroke="hsl(228.5, 77.2%, 51.5%)" stroke-width="1.5"></path><path d="M49.79 854.02L49.79 854.02" stroke="hsl(228.5, 77.2%, 51.5%)" stroke-width="1.5"></path><path d="M49.79 854.02L-55.27 871.6" stroke="hsl(228.5, 77.2%, 51.5%)" stroke-width="1.5"></path><path d="M49.79 854.02L46.45 745.17" stroke="hsl(228.5, 77.2%, 51.5%)" stroke-width="1.5"></path><path d="M49.79 854.02L169.07 868.8" stroke="hsl(228.5, 77.2%, 51.5%)" stroke-width="1.5"></path><path d="M49.79 854.02L-53.97 779.31" stroke="hsl(228.5, 77.2%, 51.5%)" stroke-width="1.5"></path><path d="M353.35 636.7L353.35 636.7" stroke="hsl(228.5, 77.2%, 51.5%)" stroke-width="1.5"></path><path d="M353.35 636.7L360.48 546.7" stroke="hsl(228.5, 77.2%, 51.5%)" stroke-width="1.5"></path><path d="M353.35 636.7L243.59 662.69" stroke="hsl(228.5, 77.2%, 51.5%)" stroke-width="1.5"></path><path d="M353.35 636.7L467.13 634.98" stroke="hsl(228.5, 77.2%, 51.5%)" stroke-width="1.5"></path><path d="M353.35 636.7L335.94 768.15" stroke="hsl(228.5, 77.2%, 51.5%)" stroke-width="1.5"></path><path d="M353.35 636.7L450.17 538.64" stroke="hsl(228.5, 77.2%, 51.5%)" stroke-width="1.5"></path><path d="M353.35 636.7L456.84 741.07" stroke="hsl(228.5, 77.2%, 51.5%)" stroke-width="1.5"></path><path d="M335.94 768.15L335.94 768.15" stroke="hsl(228.5, 77.2%, 51.5%)" stroke-width="1.5"></path><path d="M335.94 768.15L260.57 752.23" stroke="hsl(228.5, 77.2%, 51.5%)" stroke-width="1.5"></path><path d="M335.94 768.15L331.45 861.49" stroke="hsl(228.5, 77.2%, 51.5%)" stroke-width="1.5"></path><path d="M335.94 768.15L274.76 875.75" stroke="hsl(228.5, 77.2%, 51.5%)" stroke-width="1.5"></path><path d="M335.94 768.15L456.84 741.07" stroke="hsl(228.5, 77.2%, 51.5%)" stroke-width="1.5"></path><path d="M467.13 634.98L467.13 634.98" stroke="hsl(228.5, 77.2%, 51.5%)" stroke-width="1.5"></path><path d="M467.13 634.98L450.17 538.64" stroke="hsl(228.5, 77.2%, 51.5%)" stroke-width="1.5"></path><path d="M467.13 634.98L456.84 741.07" stroke="hsl(228.5, 77.2%, 51.5%)" stroke-width="1.5"></path><path d="M467.13 634.98L577.03 660.88" stroke="hsl(228.5, 77.2%, 51.5%)" stroke-width="1.5"></path><path d="M467.13 634.98L534.5 534.35" stroke="hsl(228.5, 77.2%, 51.5%)" stroke-width="1.5"></path><path d="M467.13 634.98L360.48 546.7" stroke="hsl(228.5, 77.2%, 51.5%)" stroke-width="1.5"></path><path d="M456.84 741.07L456.84 741.07" stroke="hsl(228.5, 77.2%, 51.5%)" stroke-width="1.5"></path><path d="M456.84 741.07L557 775.48" stroke="hsl(228.5, 77.2%, 51.5%)" stroke-width="1.5"></path><path d="M456.84 741.07L470.39 869.31" stroke="hsl(228.5, 77.2%, 51.5%)" stroke-width="1.5"></path><path d="M456.84 741.07L577.03 660.88" stroke="hsl(228.5, 77.2%, 51.5%)" stroke-width="1.5"></path><path d="M534.5 534.35L534.5 534.35" stroke="hsl(228.5, 77.2%, 51.5%)" stroke-width="1.5"></path><path d="M534.5 534.35L568.42 469.52" stroke="hsl(228.5, 77.2%, 51.5%)" stroke-width="1.5"></path><path d="M534.5 534.35L450.17 538.64" stroke="hsl(228.5, 77.2%, 51.5%)" stroke-width="1.5"></path><path d="M534.5 534.35L657.76 553.48" stroke="hsl(228.5, 77.2%, 51.5%)" stroke-width="1.5"></path><path d="M557 775.48L557 775.48" stroke="hsl(228.5, 77.2%, 51.5%)" stroke-width="1.5"></path><path d="M557 775.48L647.21 771.77" stroke="hsl(228.5, 77.2%, 51.5%)" stroke-width="1.5"></path><path d="M557 775.48L533.01 874.06" stroke="hsl(228.5, 77.2%, 51.5%)" stroke-width="1.5"></path><path d="M557 775.48L577.03 660.88" stroke="hsl(228.5, 77.2%, 51.5%)" stroke-width="1.5"></path><path d="M557 775.48L651.71 852.36" stroke="hsl(228.5, 77.2%, 51.5%)" stroke-width="1.5"></path><path d="M666.99 144.16L666.99 144.16" stroke="hsl(228.5, 77.2%, 51.5%)" stroke-width="1.5"></path><path d="M666.99 144.16L741.79 175.64" stroke="hsl(228.5, 77.2%, 51.5%)" stroke-width="1.5"></path><path d="M666.99 144.16L681.01 53.36" stroke="hsl(228.5, 77.2%, 51.5%)" stroke-width="1.5"></path><path d="M666.99 144.16L773.95 62.13" stroke="hsl(228.5, 77.2%, 51.5%)" stroke-width="1.5"></path><path d="M666.99 144.16L774.41 248.28" stroke="hsl(228.5, 77.2%, 51.5%)" stroke-width="1.5"></path><path d="M666.99 144.16L859.07 158.04" stroke="hsl(228.5, 77.2%, 51.5%)" stroke-width="1.5"></path><path d="M666.99 144.16L764.11 370.19" stroke="hsl(228.5, 77.2%, 51.5%)" stroke-width="1.5"></path><path d="M773.95 62.13L773.95 62.13" stroke="hsl(228.5, 77.2%, 51.5%)" stroke-width="1.5"></path><path d="M773.95 62.13L681.01 53.36" stroke="hsl(228.5, 77.2%, 51.5%)" stroke-width="1.5"></path><path d="M773.95 62.13L741.79 175.64" stroke="hsl(228.5, 77.2%, 51.5%)" stroke-width="1.5"></path><path d="M773.95 62.13L859.07 158.04" stroke="hsl(228.5, 77.2%, 51.5%)" stroke-width="1.5"></path><path d="M745.63 474.02L745.63 474.02" stroke="hsl(228.5, 77.2%, 51.5%)" stroke-width="1.5"></path><path d="M745.63 474.02L741.83 574.18" stroke="hsl(228.5, 77.2%, 51.5%)" stroke-width="1.5"></path><path d="M745.63 474.02L845.12 448.94" stroke="hsl(228.5, 77.2%, 51.5%)" stroke-width="1.5"></path><path d="M-60.5 662.53L-60.5 662.53" stroke="hsl(228.5, 77.2%, 51.5%)" stroke-width="1.5"></path><path d="M-60.5 662.53L-53.97 779.31" stroke="hsl(228.5, 77.2%, 51.5%)" stroke-width="1.5"></path><path d="M-53.97 779.31L-53.97 779.31" stroke="hsl(228.5, 77.2%, 51.5%)" stroke-width="1.5"></path><path d="M-53.97 779.31L-55.27 871.6" stroke="hsl(228.5, 77.2%, 51.5%)" stroke-width="1.5"></path><path d="M-53.97 779.31L46.45 745.17" stroke="hsl(228.5, 77.2%, 51.5%)" stroke-width="1.5"></path><path d="M-55.27 871.6L-55.27 871.6" stroke="hsl(228.5, 77.2%, 51.5%)" stroke-width="1.5"></path><path d="M-55.27 871.6L46.45 745.17" stroke="hsl(228.5, 77.2%, 51.5%)" stroke-width="1.5"></path><path d="M-55.27 871.6L-60.5 662.53" stroke="hsl(228.5, 77.2%, 51.5%)" stroke-width="1.5"></path><path d="M46.45 745.17L46.45 745.17" stroke="hsl(228.5, 77.2%, 51.5%)" stroke-width="1.5"></path><path d="M46.45 745.17L141.11 657.51" stroke="hsl(228.5, 77.2%, 51.5%)" stroke-width="1.5"></path><path d="M46.45 745.17L-60.5 662.53" stroke="hsl(228.5, 77.2%, 51.5%)" stroke-width="1.5"></path><path d="M141.11 657.51L141.11 657.51" stroke="hsl(228.5, 77.2%, 51.5%)" stroke-width="1.5"></path><path d="M141.11 657.51L243.59 662.69" stroke="hsl(228.5, 77.2%, 51.5%)" stroke-width="1.5"></path><path d="M141.11 657.51L260.57 752.23" stroke="hsl(228.5, 77.2%, 51.5%)" stroke-width="1.5"></path><path d="M141.11 657.51L-60.5 662.53" stroke="hsl(228.5, 77.2%, 51.5%)" stroke-width="1.5"></path><path d="M141.11 657.51L169.07 868.8" stroke="hsl(228.5, 77.2%, 51.5%)" stroke-width="1.5"></path><path d="M169.07 868.8L169.07 868.8" stroke="hsl(228.5, 77.2%, 51.5%)" stroke-width="1.5"></path><path d="M169.07 868.8L274.76 875.75" stroke="hsl(228.5, 77.2%, 51.5%)" stroke-width="1.5"></path><path d="M243.59 662.69L243.59 662.69" stroke="hsl(228.5, 77.2%, 51.5%)" stroke-width="1.5"></path><path d="M243.59 662.69L260.57 752.23" stroke="hsl(228.5, 77.2%, 51.5%)" stroke-width="1.5"></path><path d="M260.57 752.23L260.57 752.23" stroke="hsl(228.5, 77.2%, 51.5%)" stroke-width="1.5"></path><path d="M274.76 875.75L274.76 875.75" stroke="hsl(228.5, 77.2%, 51.5%)" stroke-width="1.5"></path><path d="M274.76 875.75L331.45 861.49" stroke="hsl(228.5, 77.2%, 51.5%)" stroke-width="1.5"></path><path d="M360.48 546.7L360.48 546.7" stroke="hsl(228.5, 77.2%, 51.5%)" stroke-width="1.5"></path><path d="M360.48 546.7L450.17 538.64" stroke="hsl(228.5, 77.2%, 51.5%)" stroke-width="1.5"></path><path d="M331.45 861.49L331.45 861.49" stroke="hsl(228.5, 77.2%, 51.5%)" stroke-width="1.5"></path><path d="M450.17 538.64L450.17 538.64" stroke="hsl(228.5, 77.2%, 51.5%)" stroke-width="1.5"></path><path d="M450.17 538.64L568.42 469.52" stroke="hsl(228.5, 77.2%, 51.5%)" stroke-width="1.5"></path><path d="M470.39 869.31L470.39 869.31" stroke="hsl(228.5, 77.2%, 51.5%)" stroke-width="1.5"></path><path d="M470.39 869.31L533.01 874.06" stroke="hsl(228.5, 77.2%, 51.5%)" stroke-width="1.5"></path><path d="M470.39 869.31L557 775.48" stroke="hsl(228.5, 77.2%, 51.5%)" stroke-width="1.5"></path><path d="M470.39 869.31L331.45 861.49" stroke="hsl(228.5, 77.2%, 51.5%)" stroke-width="1.5"></path><path d="M568.42 469.52L568.42 469.52" stroke="hsl(228.5, 77.2%, 51.5%)" stroke-width="1.5"></path><path d="M568.42 469.52L657.76 553.48" stroke="hsl(228.5, 77.2%, 51.5%)" stroke-width="1.5"></path><path d="M568.42 469.52L745.63 474.02" stroke="hsl(228.5, 77.2%, 51.5%)" stroke-width="1.5"></path><path d="M568.42 469.52L577.03 660.88" stroke="hsl(228.5, 77.2%, 51.5%)" stroke-width="1.5"></path><path d="M577.03 660.88L577.03 660.88" stroke="hsl(228.5, 77.2%, 51.5%)" stroke-width="1.5"></path><path d="M577.03 660.88L674.15 644" stroke="hsl(228.5, 77.2%, 51.5%)" stroke-width="1.5"></path><path d="M577.03 660.88L647.21 771.77" stroke="hsl(228.5, 77.2%, 51.5%)" stroke-width="1.5"></path><path d="M577.03 660.88L534.5 534.35" stroke="hsl(228.5, 77.2%, 51.5%)" stroke-width="1.5"></path><path d="M577.03 660.88L657.76 553.48" stroke="hsl(228.5, 77.2%, 51.5%)" stroke-width="1.5"></path><path d="M533.01 874.06L533.01 874.06" stroke="hsl(228.5, 77.2%, 51.5%)" stroke-width="1.5"></path><path d="M533.01 874.06L651.71 852.36" stroke="hsl(228.5, 77.2%, 51.5%)" stroke-width="1.5"></path><path d="M681.01 53.36L681.01 53.36" stroke="hsl(228.5, 77.2%, 51.5%)" stroke-width="1.5"></path><path d="M681.01 53.36L741.79 175.64" stroke="hsl(228.5, 77.2%, 51.5%)" stroke-width="1.5"></path><path d="M681.01 53.36L859.07 158.04" stroke="hsl(228.5, 77.2%, 51.5%)" stroke-width="1.5"></path><path d="M681.01 53.36L774.41 248.28" stroke="hsl(228.5, 77.2%, 51.5%)" stroke-width="1.5"></path><path d="M657.76 553.48L657.76 553.48" stroke="hsl(228.5, 77.2%, 51.5%)" stroke-width="1.5"></path><path d="M657.76 553.48L741.83 574.18" stroke="hsl(228.5, 77.2%, 51.5%)" stroke-width="1.5"></path><path d="M657.76 553.48L674.15 644" stroke="hsl(228.5, 77.2%, 51.5%)" stroke-width="1.5"></path><path d="M657.76 553.48L745.63 474.02" stroke="hsl(228.5, 77.2%, 51.5%)" stroke-width="1.5"></path><path d="M674.15 644L674.15 644" stroke="hsl(228.5, 77.2%, 51.5%)" stroke-width="1.5"></path><path d="M674.15 644L765.17 673.12" stroke="hsl(228.5, 77.2%, 51.5%)" stroke-width="1.5"></path><path d="M647.21 771.77L647.21 771.77" stroke="hsl(228.5, 77.2%, 51.5%)" stroke-width="1.5"></path><path d="M647.21 771.77L651.71 852.36" stroke="hsl(228.5, 77.2%, 51.5%)" stroke-width="1.5"></path><path d="M647.21 771.77L761.19 734.93" stroke="hsl(228.5, 77.2%, 51.5%)" stroke-width="1.5"></path><path d="M647.21 771.77L674.15 644" stroke="hsl(228.5, 77.2%, 51.5%)" stroke-width="1.5"></path><path d="M651.71 852.36L651.71 852.36" stroke="hsl(228.5, 77.2%, 51.5%)" stroke-width="1.5"></path><path d="M651.71 852.36L739.23 878.17" stroke="hsl(228.5, 77.2%, 51.5%)" stroke-width="1.5"></path><path d="M651.71 852.36L761.19 734.93" stroke="hsl(228.5, 77.2%, 51.5%)" stroke-width="1.5"></path><path d="M651.71 852.36L470.39 869.31" stroke="hsl(228.5, 77.2%, 51.5%)" stroke-width="1.5"></path><path d="M741.79 175.64L741.79 175.64" stroke="hsl(228.5, 77.2%, 51.5%)" stroke-width="1.5"></path><path d="M741.79 175.64L774.41 248.28" stroke="hsl(228.5, 77.2%, 51.5%)" stroke-width="1.5"></path><path d="M774.41 248.28L774.41 248.28" stroke="hsl(228.5, 77.2%, 51.5%)" stroke-width="1.5"></path><path d="M774.41 248.28L764.11 370.19" stroke="hsl(228.5, 77.2%, 51.5%)" stroke-width="1.5"></path><path d="M774.41 248.28L859.07 158.04" stroke="hsl(228.5, 77.2%, 51.5%)" stroke-width="1.5"></path><path d="M774.41 248.28L885.91 350.97" stroke="hsl(228.5, 77.2%, 51.5%)" stroke-width="1.5"></path><path d="M764.11 370.19L764.11 370.19" stroke="hsl(228.5, 77.2%, 51.5%)" stroke-width="1.5"></path><path d="M764.11 370.19L745.63 474.02" stroke="hsl(228.5, 77.2%, 51.5%)" stroke-width="1.5"></path><path d="M764.11 370.19L845.12 448.94" stroke="hsl(228.5, 77.2%, 51.5%)" stroke-width="1.5"></path><path d="M764.11 370.19L885.91 350.97" stroke="hsl(228.5, 77.2%, 51.5%)" stroke-width="1.5"></path><path d="M764.11 370.19L741.79 175.64" stroke="hsl(228.5, 77.2%, 51.5%)" stroke-width="1.5"></path><path d="M741.83 574.18L741.83 574.18" stroke="hsl(228.5, 77.2%, 51.5%)" stroke-width="1.5"></path><path d="M741.83 574.18L674.15 644" stroke="hsl(228.5, 77.2%, 51.5%)" stroke-width="1.5"></path><path d="M741.83 574.18L765.17 673.12" stroke="hsl(228.5, 77.2%, 51.5%)" stroke-width="1.5"></path><path d="M765.17 673.12L765.17 673.12" stroke="hsl(228.5, 77.2%, 51.5%)" stroke-width="1.5"></path><path d="M765.17 673.12L761.19 734.93" stroke="hsl(228.5, 77.2%, 51.5%)" stroke-width="1.5"></path><path d="M765.17 673.12L838.27 674.05" stroke="hsl(228.5, 77.2%, 51.5%)" stroke-width="1.5"></path><path d="M761.19 734.93L761.19 734.93" stroke="hsl(228.5, 77.2%, 51.5%)" stroke-width="1.5"></path><path d="M761.19 734.93L838.27 674.05" stroke="hsl(228.5, 77.2%, 51.5%)" stroke-width="1.5"></path><path d="M761.19 734.93L866.39 736.62" stroke="hsl(228.5, 77.2%, 51.5%)" stroke-width="1.5"></path><path d="M739.23 878.17L739.23 878.17" stroke="hsl(228.5, 77.2%, 51.5%)" stroke-width="1.5"></path><path d="M739.23 878.17L851.31 862.7" stroke="hsl(228.5, 77.2%, 51.5%)" stroke-width="1.5"></path><path d="M859.07 158.04L859.07 158.04" stroke="hsl(228.5, 77.2%, 51.5%)" stroke-width="1.5"></path><path d="M859.07 158.04L741.79 175.64" stroke="hsl(228.5, 77.2%, 51.5%)" stroke-width="1.5"></path><path d="M885.91 350.97L885.91 350.97" stroke="hsl(228.5, 77.2%, 51.5%)" stroke-width="1.5"></path><path d="M885.91 350.97L845.12 448.94" stroke="hsl(228.5, 77.2%, 51.5%)" stroke-width="1.5"></path><path d="M845.12 448.94L845.12 448.94" stroke="hsl(228.5, 77.2%, 51.5%)" stroke-width="1.5"></path><path d="M845.12 448.94L885.72 548.43" stroke="hsl(228.5, 77.2%, 51.5%)" stroke-width="1.5"></path><path d="M845.12 448.94L741.83 574.18" stroke="hsl(228.5, 77.2%, 51.5%)" stroke-width="1.5"></path><path d="M885.72 548.43L885.72 548.43" stroke="hsl(228.5, 77.2%, 51.5%)" stroke-width="1.5"></path><path d="M885.72 548.43L838.27 674.05" stroke="hsl(228.5, 77.2%, 51.5%)" stroke-width="1.5"></path><path d="M885.72 548.43L741.83 574.18" stroke="hsl(228.5, 77.2%, 51.5%)" stroke-width="1.5"></path><path d="M885.72 548.43L745.63 474.02" stroke="hsl(228.5, 77.2%, 51.5%)" stroke-width="1.5"></path><path d="M885.72 548.43L765.17 673.12" stroke="hsl(228.5, 77.2%, 51.5%)" stroke-width="1.5"></path><path d="M838.27 674.05L838.27 674.05" stroke="hsl(228.5, 77.2%, 51.5%)" stroke-width="1.5"></path><path d="M838.27 674.05L866.39 736.62" stroke="hsl(228.5, 77.2%, 51.5%)" stroke-width="1.5"></path><path d="M866.39 736.62L866.39 736.62" stroke="hsl(228.5, 77.2%, 51.5%)" stroke-width="1.5"></path><path d="M866.39 736.62L765.17 673.12" stroke="hsl(228.5, 77.2%, 51.5%)" stroke-width="1.5"></path><path d="M866.39 736.62L851.31 862.7" stroke="hsl(228.5, 77.2%, 51.5%)" stroke-width="1.5"></path><path d="M851.31 862.7L851.31 862.7" stroke="hsl(228.5, 77.2%, 51.5%)" stroke-width="1.5"></path><circle r="25" cx="68.24" cy="672.54" fill="url(&quot;#SvgjsRadialGradient1001&quot;)"></circle><circle r="25" cx="49.79" cy="854.02" fill="url(&quot;#SvgjsRadialGradient1001&quot;)"></circle><circle r="25" cx="353.35" cy="636.7" fill="url(&quot;#SvgjsRadialGradient1001&quot;)"></circle><circle r="25" cx="335.94" cy="768.15" fill="url(&quot;#SvgjsRadialGradient1001&quot;)"></circle><circle r="25" cx="467.13" cy="634.98" fill="url(&quot;#SvgjsRadialGradient1001&quot;)"></circle><circle r="25" cx="456.84" cy="741.07" fill="url(&quot;#SvgjsRadialGradient1001&quot;)"></circle><circle r="25" cx="534.5" cy="534.35" fill="url(&quot;#SvgjsRadialGradient1001&quot;)"></circle><circle r="25" cx="557" cy="775.48" fill="url(&quot;#SvgjsRadialGradient1001&quot;)"></circle><circle r="25" cx="666.99" cy="144.16" fill="url(&quot;#SvgjsRadialGradient1001&quot;)"></circle><circle r="25" cx="773.95" cy="62.13" fill="url(&quot;#SvgjsRadialGradient1001&quot;)"></circle><circle r="25" cx="745.63" cy="474.02" fill="url(&quot;#SvgjsRadialGradient1001&quot;)"></circle><circle r="5" cx="-60.5" cy="662.53" fill="#8b9ad9"></circle><circle r="5" cx="-53.97" cy="779.31" fill="#8b9ad9"></circle><circle r="5" cx="-55.27" cy="871.6" fill="#8b9ad9"></circle><circle r="5" cx="46.45" cy="745.17" fill="#8b9ad9"></circle><circle r="5" cx="141.11" cy="657.51" fill="#8b9ad9"></circle><circle r="5" cx="169.07" cy="868.8" fill="#8b9ad9"></circle><circle r="5" cx="243.59" cy="662.69" fill="#8b9ad9"></circle><circle r="5" cx="260.57" cy="752.23" fill="#8b9ad9"></circle><circle r="5" cx="274.76" cy="875.75" fill="#8b9ad9"></circle><circle r="5" cx="360.48" cy="546.7" fill="#8b9ad9"></circle><circle r="5" cx="331.45" cy="861.49" fill="#8b9ad9"></circle><circle r="5" cx="450.17" cy="538.64" fill="#8b9ad9"></circle><circle r="5" cx="470.39" cy="869.31" fill="#8b9ad9"></circle><circle r="5" cx="568.42" cy="469.52" fill="#8b9ad9"></circle><circle r="5" cx="577.03" cy="660.88" fill="#8b9ad9"></circle><circle r="5" cx="533.01" cy="874.06" fill="#8b9ad9"></circle><circle r="5" cx="681.01" cy="53.36" fill="#8b9ad9"></circle><circle r="5" cx="657.76" cy="553.48" fill="#8b9ad9"></circle><circle r="5" cx="674.15" cy="644" fill="#8b9ad9"></circle><circle r="5" cx="647.21" cy="771.77" fill="#8b9ad9"></circle><circle r="5" cx="651.71" cy="852.36" fill="#8b9ad9"></circle><circle r="5" cx="741.79" cy="175.64" fill="#8b9ad9"></circle><circle r="5" cx="774.41" cy="248.28" fill="#8b9ad9"></circle><circle r="5" cx="764.11" cy="370.19" fill="#8b9ad9"></circle><circle r="5" cx="741.83" cy="574.18" fill="#8b9ad9"></circle><circle r="5" cx="765.17" cy="673.12" fill="#8b9ad9"></circle><circle r="5" cx="761.19" cy="734.93" fill="#8b9ad9"></circle><circle r="5" cx="739.23" cy="878.17" fill="#8b9ad9"></circle><circle r="5" cx="859.07" cy="158.04" fill="#8b9ad9"></circle><circle r="5" cx="885.91" cy="350.97" fill="#8b9ad9"></circle><circle r="5" cx="845.12" cy="448.94" fill="#8b9ad9"></circle><circle r="5" cx="885.72" cy="548.43" fill="#8b9ad9"></circle><circle r="5" cx="838.27" cy="674.05" fill="#8b9ad9"></circle><circle r="5" cx="866.39" cy="736.62" fill="#8b9ad9"></circle><circle r="5" cx="851.31" cy="862.7" fill="#8b9ad9"></circle></g><defs><mask id="SvgjsMask1000"><rect width="810" height="810" fill="#ffffff"></rect></mask><radialGradient id="SvgjsRadialGradient1001"><stop stop-color="#ffffff" offset="0.1"></stop><stop stop-color="#1735b3" offset="0.2"></stop><stop stop-color="rgba(23, 53, 179, 0)" offset="1"></stop></radialGradient></defs></svg>