<svg height="64" viewBox="0 0 64 64" width="64" xmlns="http://www.w3.org/2000/svg"><g fill="none" fill-rule="evenodd"><path d="m4 7h56v35h-56z" fill="#595959"/><path d="m6 9h52v31h-52z" fill="#e8e8e8"/><path d="m0 42h64v2.5c0 1.3807119-1.1108398 2.5-2.5088758 2.5h-58.98224835c-1.38561387 0-2.50887585-1.1096621-2.50887585-2.5z" fill="#4796e7"/><path d="m38 30.9982456c0-.5513158.4547089-.9982456.9999602-.9982456h15.0000796c.5522628 0 .9999602.4555207.9999602.9982456v27.0035088c0 .5513158-.4547089.9982456-.9999602.9982456h-15.0000796c-.5522628 0-.9999602-.4555207-.9999602-.9982456z" fill="#595959"/><path d="m39 33h15v21h-15z" fill="#b4dffb"/><path d="m43 35h7v6h-7z" fill="#ffaf40"/><path d="m43 43h7v6h-7z" fill="#bd7575"/><path d="m43 51h7v3h-7z" fill="#80d25b"/><circle cx="46.5" cy="56.5" fill="#868686" r="1.5"/><path d="m9 18h14v12h-14z" fill="#ffaf40"/><path d="m25 18h14v12h-14z" fill="#bd7575"/><path d="m41 18h14v12h-14z" fill="#80d25b"/></g></svg>