<svg viewBox="0 0 400 300" xmlns="http://www.w3.org/2000/svg"><path d="m300.05 91.71v105.58a9.8 9.8 0 0 1 -9.8 9.8h-178.57a9.8 9.8 0 0 1 -9.8-9.8v-105.58a9.8 9.8 0 0 1 9.8-9.79h178.57a9.79 9.79 0 0 1 9.8 9.79z" fill="#fff"/><path d="m290.25 208.09h-178.57a10.81 10.81 0 0 1 -10.8-10.8v-105.58a10.8 10.8 0 0 1 10.8-10.79h178.57a10.8 10.8 0 0 1 10.8 10.79v105.58a10.81 10.81 0 0 1 -10.8 10.8zm-178.57-125.17a8.8 8.8 0 0 0 -8.8 8.79v105.58a8.81 8.81 0 0 0 8.8 8.8h178.57a8.81 8.81 0 0 0 8.8-8.8v-105.58a8.8 8.8 0 0 0 -8.8-8.79z" fill="#093f68"/><path d="m285.2 147.49v4.4a8.51 8.51 0 0 1 -8.51 8.5h-151.45a8.51 8.51 0 0 1 -8.51-8.5v-4.4a8.5 8.5 0 0 1 8.51-8.5h151.45a8.5 8.5 0 0 1 8.51 8.5z" fill="#fff"/><path d="m276.69 161.39h-151.45a9.52 9.52 0 0 1 -9.51-9.5v-4.4a9.52 9.52 0 0 1 9.51-9.5h151.45a9.52 9.52 0 0 1 9.51 9.5v4.4a9.52 9.52 0 0 1 -9.51 9.5zm-151.45-21.39a7.52 7.52 0 0 0 -7.51 7.5v4.4a7.51 7.51 0 0 0 7.51 7.5h151.45a7.51 7.51 0 0 0 7.51-7.5v-4.4a7.52 7.52 0 0 0 -7.51-7.5z" fill="#093f68"/><path d="m300.05 91.71v9.29h-198.17v-9.3a9.8 9.8 0 0 1 9.8-9.79h178.57a9.79 9.79 0 0 1 9.8 9.8z" fill="#68e1fd"/><path d="m300.05 102h-198.17a1 1 0 0 1 -1-1v-9.3a10.8 10.8 0 0 1 10.8-10.79h178.57a10.8 10.8 0 0 1 10.8 10.79v9.3a1 1 0 0 1 -1 1zm-197.17-2h196.17v-8.3a8.8 8.8 0 0 0 -8.8-8.79h-178.57a8.8 8.8 0 0 0 -8.8 8.79z" fill="#093f68"/><circle cx="113.99" cy="90.76" fill="#f56132" r="2.41"/><circle cx="122.73" cy="90.76" fill="#093f68" r="2.41"/><circle cx="131.48" cy="90.76" fill="#093f68" r="2.41"/><path d="m285.2 147.49v4.4a8.51 8.51 0 0 1 -8.51 8.5h-16.5v-21.39h16.5a8.5 8.5 0 0 1 8.51 8.49z" fill="#70cc40"/><path d="m276.69 161.39h-16.5a1 1 0 0 1 -1-1v-21.39a1 1 0 0 1 1-1h16.5a9.52 9.52 0 0 1 9.51 9.5v4.4a9.52 9.52 0 0 1 -9.51 9.49zm-15.5-2h15.5a7.51 7.51 0 0 0 7.51-7.5v-4.4a7.52 7.52 0 0 0 -7.51-7.5h-15.5z" fill="#093f68"/><path d="m270 154.3a6.65 6.65 0 1 1 4.7-11.35 6.65 6.65 0 0 1 -4.7 11.35zm0-11.3a4.65 4.65 0 1 0 3.29 1.36 4.63 4.63 0 0 0 -3.29-1.36z" fill="#093f68"/><path d="m278.44 157.09a1 1 0 0 1 -.7-.29l-4.45-4.44a1 1 0 0 1 1.42-1.42l4.44 4.44a1 1 0 0 1 0 1.42 1 1 0 0 1 -.71.29z" fill="#093f68"/><path d="m161.18 186.73h11.77v21.5h-11.77z" fill="#093f68" transform="matrix(.81674227 .57700265 -.57700265 .81674227 144.54 -60.21)"/><path d="m165.67 210.66a.93.93 0 0 1 -.57-.19l-9.62-6.79a1 1 0 0 1 -.41-.64 1.05 1.05 0 0 1 .17-.75l12.41-17.56a1 1 0 0 1 .64-.41 1.05 1.05 0 0 1 .75.17l9.61 6.79a1 1 0 0 1 .41.65.93.93 0 0 1 -.17.74l-12.4 17.56a1 1 0 0 1 -.82.43zm-8.22-8 8 5.63 11.25-15.92-8-5.64z" fill="#093f68"/><path d="m167.74 172.99h18.07v21.5h-18.07z" fill="#68e1fd" transform="matrix(.81674227 .57700265 -.57700265 .81674227 138.39 -68.32)"/><path d="m178 198.73a1 1 0 0 1 -.58-.18l-14.75-10.42a1 1 0 0 1 -.24-1.4l12.4-17.56a1.05 1.05 0 0 1 .65-.41 1 1 0 0 1 .74.17l14.76 10.43a1 1 0 0 1 .24 1.39l-12.4 17.56a1 1 0 0 1 -.65.41zm-13.36-11.66 13.12 9.27 11.24-15.93-13.12-9.27z" fill="#093f68"/><rect fill="#68e1fd" height="49.25" rx="3.85" transform="matrix(.81674227 .57700265 -.57700265 .81674227 156.37 -44.59)" width="18.07" x="139.37" y="199.29"/><path d="m140.64 248.72a4.81 4.81 0 0 1 -2.79-.89l-8.47-6a4.85 4.85 0 0 1 -1.16-6.76l24-33.94a4.85 4.85 0 0 1 6.78-1.13l8.47 6a4.86 4.86 0 0 1 1.16 6.76l-24 33.94a4.85 4.85 0 0 1 -3.99 2.02zm-1.64-2.52a2.85 2.85 0 0 0 4-.68l24-33.94a2.85 2.85 0 0 0 -.69-4l-8.47-6a2.85 2.85 0 0 0 -4 .69l-24 33.94a2.8 2.8 0 0 0 -.48 2.12 2.85 2.85 0 0 0 1.16 1.85l8.47 6z" fill="#093f68"/><path d="m224.13 116.69a42.46 42.46 0 1 0 10.19 59.18 42.46 42.46 0 0 0 -10.19-59.18zm-40.85 57.84a28.35 28.35 0 1 1 39.51-6.8 28.35 28.35 0 0 1 -39.51 6.8z" fill="#68e1fd"/><path d="m199.54 194.85a43.47 43.47 0 1 1 25.17-79 43.47 43.47 0 0 1 -17.71 78.36 43.9 43.9 0 0 1 -7.46.64zm.15-84.92a41.42 41.42 0 1 0 23.87 7.58 41.44 41.44 0 0 0 -23.87-7.58zm-.1 70.78a29.34 29.34 0 1 1 24-12.4 29.24 29.24 0 0 1 -24 12.4zm.08-56.67a27.33 27.33 0 1 0 15.74 5 27.31 27.31 0 0 0 -15.74-5.04z" fill="#093f68"/><circle cx="199.63" cy="151.38" fill="#fff" r="28.35"/><g fill="#093f68"><path d="m199.59 180.71a29.32 29.32 0 1 1 24-12.4 29.24 29.24 0 0 1 -24 12.4zm.08-56.67a27.33 27.33 0 1 0 15.74 5 27.31 27.31 0 0 0 -15.74-5.04z"/><path d="m182.8 148.56a1.37 1.37 0 0 0 -.6-.41 2.1 2.1 0 0 0 -.71-.13 1.48 1.48 0 0 0 -.41 0 1.64 1.64 0 0 0 -.39.14.94.94 0 0 0 -.3.26.71.71 0 0 0 .16 1 2.68 2.68 0 0 0 .7.34l.91.28a3.68 3.68 0 0 1 .91.39 2.27 2.27 0 0 1 .7.68 2.06 2.06 0 0 1 .28 1.15 2.61 2.61 0 0 1 -.26 1.19 2.49 2.49 0 0 1 -.69.85 3 3 0 0 1 -1 .5 4.84 4.84 0 0 1 -1.21.16 4.48 4.48 0 0 1 -1.49-.24 3.9 3.9 0 0 1 -1.27-.79l1.28-1.42a1.91 1.91 0 0 0 .71.58 2 2 0 0 0 .87.2 2.3 2.3 0 0 0 .45-.05 1.59 1.59 0 0 0 .4-.16.92.92 0 0 0 .29-.26.71.71 0 0 0 .11-.39.68.68 0 0 0 -.28-.58 2.78 2.78 0 0 0 -.71-.37l-.93-.3a4.28 4.28 0 0 1 -.93-.4 2.39 2.39 0 0 1 -.71-.67 1.93 1.93 0 0 1 -.28-1.1 2.37 2.37 0 0 1 .26-1.16 2.45 2.45 0 0 1 .69-.84 3 3 0 0 1 1-.5 4.19 4.19 0 0 1 1.17-.17 4.69 4.69 0 0 1 1.35.2 3.1 3.1 0 0 1 1.17.66z"/><path d="m190.5 153.79a2.83 2.83 0 0 1 -1.05.82 3.25 3.25 0 0 1 -1.33.29 3.56 3.56 0 0 1 -1.22-.21 2.92 2.92 0 0 1 -1-.6 2.61 2.61 0 0 1 -.67-.93 3.2 3.2 0 0 1 0-2.43 2.7 2.7 0 0 1 .67-.93 2.92 2.92 0 0 1 1-.6 3.56 3.56 0 0 1 1.22-.21 2.77 2.77 0 0 1 1.1.21 2.19 2.19 0 0 1 .83.6 2.66 2.66 0 0 1 .53.93 3.86 3.86 0 0 1 .19 1.22v.54h-4a1.37 1.37 0 0 0 .46.79 1.24 1.24 0 0 0 .85.3 1.3 1.3 0 0 0 .73-.19 2 2 0 0 0 .51-.49zm-1.5-2.48a1 1 0 0 0 -.29-.75 1 1 0 0 0 -.78-.32 1.19 1.19 0 0 0 -.51.1 1.37 1.37 0 0 0 -.37.23 1 1 0 0 0 -.25.34 1.38 1.38 0 0 0 -.1.4z"/><path d="m195.35 154.05a1.57 1.57 0 0 1 -.77.65 2.66 2.66 0 0 1 -1.77.09 1.82 1.82 0 0 1 -.65-.33 1.7 1.7 0 0 1 -.44-.55 1.9 1.9 0 0 1 0-1.57 1.64 1.64 0 0 1 .49-.56 2.53 2.53 0 0 1 .7-.34 5.17 5.17 0 0 1 .82-.18 7.93 7.93 0 0 1 .84-.07h.78a.89.89 0 0 0 -.33-.73 1.15 1.15 0 0 0 -.78-.28 1.69 1.69 0 0 0 -.78.18 2 2 0 0 0 -.63.5l-.93-.95a3.07 3.07 0 0 1 1.14-.68 4.06 4.06 0 0 1 1.34-.23 3.71 3.71 0 0 1 1.26.19 1.83 1.83 0 0 1 .78.56 2.25 2.25 0 0 1 .42.91 6.6 6.6 0 0 1 .11 1.25v2.86h-1.6zm-.43-1.76h-.49a2.28 2.28 0 0 0 -.57.1 1.19 1.19 0 0 0 -.46.24.55.55 0 0 0 -.19.45.5.5 0 0 0 .27.47 1.08 1.08 0 0 0 .55.15 1.57 1.57 0 0 0 .49-.07 1.54 1.54 0 0 0 .43-.2.91.91 0 0 0 .4-.79v-.37z"/><path d="m198 149.13h1.74v.9a2.35 2.35 0 0 1 .66-.78 1.72 1.72 0 0 1 1-.26h.3l.28.05v1.59a2.37 2.37 0 0 0 -.36-.09 2.34 2.34 0 0 0 -.38 0 1.93 1.93 0 0 0 -.79.14 1 1 0 0 0 -.44.39 1.34 1.34 0 0 0 -.21.6 5.92 5.92 0 0 0 0 .76v2.35h-1.8z"/><path d="m206.36 151a1.05 1.05 0 0 0 -.86-.43 1.36 1.36 0 0 0 -1 .39 1.67 1.67 0 0 0 0 2.07 1.36 1.36 0 0 0 1 .39.91.91 0 0 0 .5-.13 1.31 1.31 0 0 0 .36-.3l1.14 1.21a2.29 2.29 0 0 1 -.95.58 3.7 3.7 0 0 1 -1.05.17 3.51 3.51 0 0 1 -1.22-.21 3 3 0 0 1 -1-.6 2.71 2.71 0 0 1 -.66-.93 3 3 0 0 1 .66-3.36 3 3 0 0 1 1-.6 3.51 3.51 0 0 1 1.22-.21 3.7 3.7 0 0 1 1.05.17 2.29 2.29 0 0 1 .95.58z"/><path d="m209.87 146v3.9a1 1 0 0 1 .2-.33 1.56 1.56 0 0 1 .33-.29 2.29 2.29 0 0 1 .47-.21 2.07 2.07 0 0 1 .57-.08 2.34 2.34 0 0 1 1.07.21 1.49 1.49 0 0 1 .63.56 2.22 2.22 0 0 1 .31.84 7 7 0 0 1 .08 1.06v3.1h-1.74v-2.76a4.26 4.26 0 0 0 0-.5 1.52 1.52 0 0 0 -.1-.48.82.82 0 0 0 -.27-.36.84.84 0 0 0 -.51-.14 1.12 1.12 0 0 0 -.55.12.82.82 0 0 0 -.31.33 1.09 1.09 0 0 0 -.15.45 4.63 4.63 0 0 0 0 .54v2.8h-1.74v-8.76z"/><path d="m214.81 153.76a1.15 1.15 0 0 1 .08-.41 1 1 0 0 1 .23-.34 1 1 0 0 1 .34-.23 1.16 1.16 0 0 1 .42-.08 1.15 1.15 0 0 1 .41.08.93.93 0 0 1 .35.23 1 1 0 0 1 .22.34 1 1 0 0 1 .08.41 1 1 0 0 1 -.08.42 1 1 0 0 1 -.22.34 1.07 1.07 0 0 1 -.35.23 1.15 1.15 0 0 1 -.41.08 1.16 1.16 0 0 1 -.42-.08 1.13 1.13 0 0 1 -.34-.23 1 1 0 0 1 -.23-.34 1.16 1.16 0 0 1 -.08-.42z"/><path d="m218.24 153.76a1.15 1.15 0 0 1 .08-.41 1 1 0 0 1 .23-.34.89.89 0 0 1 .34-.23 1.16 1.16 0 0 1 .42-.08 1.15 1.15 0 0 1 .41.08 1.08 1.08 0 0 1 .57.57 1.15 1.15 0 0 1 .08.41 1.16 1.16 0 0 1 -.08.42.89.89 0 0 1 -.23.34 1 1 0 0 1 -.34.23 1.15 1.15 0 0 1 -.41.08 1.16 1.16 0 0 1 -.42-.08 1.08 1.08 0 0 1 -.57-.57 1.16 1.16 0 0 1 -.08-.42z"/><path d="m221.67 153.76a1.15 1.15 0 0 1 .08-.41 1.08 1.08 0 0 1 .57-.57 1.15 1.15 0 0 1 .41-.08 1.16 1.16 0 0 1 .42.08 1.08 1.08 0 0 1 .57.57 1.15 1.15 0 0 1 .08.41 1.16 1.16 0 0 1 -.08.42.89.89 0 0 1 -.23.34 1 1 0 0 1 -.34.23 1.16 1.16 0 0 1 -.42.08 1.15 1.15 0 0 1 -.41-.08 1 1 0 0 1 -.34-.23.89.89 0 0 1 -.23-.34 1.16 1.16 0 0 1 -.08-.42z"/></g><rect fill="#f56132" height="39.6" rx="4.94" width="48.23" x="84.43" y="175.96"/><path d="m127.72 216.56h-38.36a5.94 5.94 0 0 1 -5.93-5.94v-29.73a5.94 5.94 0 0 1 5.93-5.89h38.36a6 6 0 0 1 5.94 5.93v29.73a6 6 0 0 1 -5.94 5.9zm-38.36-39.56a3.93 3.93 0 0 0 -3.93 3.93v29.73a3.93 3.93 0 0 0 3.93 3.94h38.36a3.94 3.94 0 0 0 3.94-3.94v-29.77a3.94 3.94 0 0 0 -3.94-3.93z" fill="#093f68"/><path d="m100.58 207.06v-22.6l19.74 11.3z" fill="#fff"/><path d="m100.58 208.06a1 1 0 0 1 -.5-.13 1 1 0 0 1 -.5-.87v-22.6a1 1 0 0 1 .5-.87 1 1 0 0 1 1 0l19.74 11.3a1 1 0 0 1 0 1.74l-19.74 11.3a1 1 0 0 1 -.5.13zm1-21.88v19.16l16.73-9.58z" fill="#093f68"/><rect fill="#ffbc0e" height="38.53" rx="3.46" width="52.41" x="263.16" y="88.39"/><path d="m312.11 127.92h-45.49a4.46 4.46 0 0 1 -4.46-4.46v-31.61a4.46 4.46 0 0 1 4.46-4.46h45.49a4.46 4.46 0 0 1 4.46 4.46v31.61a4.46 4.46 0 0 1 -4.46 4.46zm-45.49-38.53a2.46 2.46 0 0 0 -2.46 2.46v31.61a2.47 2.47 0 0 0 2.46 2.46h45.49a2.46 2.46 0 0 0 2.46-2.46v-31.61a2.46 2.46 0 0 0 -2.46-2.46z" fill="#093f68"/><path d="m263.16 122.82a1 1 0 0 1 -.66-.25 1 1 0 0 1 -.08-1.42l16.58-18.63a1.07 1.07 0 0 1 .69-.33 1 1 0 0 1 .73.26l17.15 15.39a1 1 0 0 1 -1.33 1.49l-16.37-14.73-16 17.89a1 1 0 0 1 -.71.33z" fill="#093f68"/><path d="m293.54 116.53a1 1 0 0 1 -.74-.32 1 1 0 0 1 .06-1.42l9.88-9.1a1 1 0 0 1 1.23-.1l12.16 8.14a1 1 0 1 1 -1.13 1.67l-11.51-7.7-9.29 8.56a1 1 0 0 1 -.66.27z" fill="#093f68"/><circle cx="293.54" cy="99.22" fill="#fff" r="3.97"/><path d="m293.54 104.19a5 5 0 1 1 5-5 5 5 0 0 1 -5 5zm0-7.94a3 3 0 1 0 3 3 3 3 0 0 0 -3-3z" fill="#093f68"/><path d="m312.51 214.82h-33.59v-30.94l7.05-6.84h26.54z" fill="#fff"/><path d="m312.51 215.82h-33.59a1 1 0 0 1 -1-1v-30.94a1 1 0 0 1 .31-.72l7-6.83a1 1 0 0 1 .7-.29h26.54a1 1 0 0 1 1 1v37.78a1 1 0 0 1 -.96 1zm-32.59-2h31.59v-35.82h-25.14l-6.45 6.26z" fill="#093f68"/><path d="m278.92 183.88h6.98v-6.84z" fill="#fff"/><path d="m285.9 184.88h-7a1 1 0 0 1 -.7-1.72l7-6.83a1 1 0 0 1 1.08-.21 1 1 0 0 1 .62.92v6.84a1 1 0 0 1 -1 1zm-4.53-2h3.53v-3.46z" fill="#093f68"/><path d="m306.27 190.59h-21.1a1 1 0 0 1 0-2h21.1a1 1 0 0 1 0 2z" fill="#dfeaef"/><path d="m306.27 198.29h-21.1a1 1 0 0 1 0-2h21.1a1 1 0 0 1 0 2z" fill="#dfeaef"/><path d="m301.19 206h-16a1 1 0 0 1 0-2h16a1 1 0 0 1 0 2z" fill="#dfeaef"/></svg>